<svg width="250" height="250" viewBox="0 0 250 250" fill="none" xmlns="http://www.w3.org/2000/svg">
<rect width="250" height="250" rx="60" fill="white"/>
<path d="M167 69H83C67.53 69 55 81.53 55 97V153C55 168.47 67.53 181 83 181H167C182.47 181 195 168.47 195 153V97C195 81.53 182.47 69 167 69ZM153.98 137.39C152.3 138.79 149.99 139.35 147.82 138.79L70.05 119.75C72.15 114.64 77.12 111 83 111H167C171.69 111 175.82 113.38 178.41 116.88L153.98 137.39ZM83 83H167C174.7 83 181 89.3 181 97V100.85C176.87 98.47 172.11 97 167 97H83C77.89 97 73.13 98.47 69 100.85V97C69 89.3 75.3 83 83 83Z" fill="black"/>
</svg>
